<svg width="18" height="18" viewBox="0 0 18 18" fill="none" xmlns="http://www.w3.org/2000/svg">
<g clip-path="url(#clip0_253_64)">
<path d="M12.802 6.40734C12.9129 5.39159 12.6157 4.3734 11.9759 3.57675C11.336 2.7801 10.4059 2.27025 9.3902 2.15937C8.37445 2.04848 7.35626 2.34564 6.55961 2.98548C5.76296 3.62531 5.25311 4.5554 5.14223 5.57115C4.65445 10.0393 2.60015 11.1069 2.60015 11.1069L14.0898 12.3612C14.0898 12.3612 12.3142 10.8755 12.802 6.40734Z" stroke="#8F9BB7" stroke-width="1.54105" stroke-linecap="round" stroke-linejoin="round"/>
<path d="M9.1706 14.4076C9.03726 14.5888 8.85865 14.7318 8.65266 14.8223C8.44667 14.9128 8.22053 14.9475 7.99688 14.9231C7.77323 14.8987 7.55992 14.8159 7.3783 14.6832C7.19668 14.5504 7.05314 14.3722 6.96204 14.1665" stroke="#8F9BB7" stroke-width="1.54105" stroke-linecap="round" stroke-linejoin="round"/>
</g>
<defs>
<clipPath id="clip0_253_64">
<rect width="15.4105" height="15.4105" fill="white" transform="translate(1.86987 0.0463867) rotate(6.23012)"/>
</clipPath>
</defs>
</svg>
