<svg width="auto" height="19" viewBox="0 0 17 19" fill="none" xmlns="http://www.w3.org/2000/svg">
<path fill-rule="evenodd" clip-rule="evenodd" d="M12.1612 0.833313C12.5062 0.833313 12.7862 1.11331 12.7862 1.45831L12.7866 2.16482C14.0034 2.24824 15.0139 2.66502 15.7292 3.38173C16.51 4.1659 16.9208 5.2934 16.9167 6.6459V14.2484C16.9167 17.0251 15.1533 18.7501 12.3158 18.7501H5.26749C2.42999 18.7501 0.666656 17.0009 0.666656 14.1851V6.64423C0.666656 4.02522 2.2392 2.3441 4.80389 2.16511L4.80441 1.45831C4.80441 1.11331 5.08441 0.833313 5.42941 0.833313C5.77441 0.833313 6.05441 1.11331 6.05441 1.45831L6.05416 2.14915H11.5358L11.5362 1.45831C11.5362 1.11331 11.8162 0.833313 12.1612 0.833313ZM15.6667 8.25331H1.91666V14.1851C1.91666 16.3234 3.10666 17.5001 5.26749 17.5001H12.3158C14.4767 17.5001 15.6667 16.3451 15.6667 14.2484L15.6667 8.25331ZM12.501 13.4969C12.846 13.4969 13.126 13.7769 13.126 14.1219C13.126 14.4669 12.846 14.7469 12.501 14.7469C12.156 14.7469 11.8727 14.4669 11.8727 14.1219C11.8727 13.7769 12.1485 13.4969 12.4935 13.4969H12.501ZM8.80307 13.4969C9.14807 13.4969 9.42807 13.7769 9.42807 14.1219C9.42807 14.4669 9.14807 14.7469 8.80307 14.7469C8.45807 14.7469 8.17474 14.4669 8.17474 14.1219C8.17474 13.7769 8.45057 13.4969 8.79557 13.4969H8.80307ZM5.09741 13.4969C5.44241 13.4969 5.72241 13.7769 5.72241 14.1219C5.72241 14.4669 5.44241 14.7469 5.09741 14.7469C4.75241 14.7469 4.46824 14.4669 4.46824 14.1219C4.46824 13.7769 4.74491 13.4969 5.08991 13.4969H5.09741ZM12.501 10.258C12.846 10.258 13.126 10.538 13.126 10.883C13.126 11.228 12.846 11.508 12.501 11.508C12.156 11.508 11.8727 11.228 11.8727 10.883C11.8727 10.538 12.1485 10.258 12.4935 10.258H12.501ZM8.80307 10.258C9.14807 10.258 9.42807 10.538 9.42807 10.883C9.42807 11.228 9.14807 11.508 8.80307 11.508C8.45807 11.508 8.17474 11.228 8.17474 10.883C8.17474 10.538 8.45057 10.258 8.79557 10.258H8.80307ZM5.09741 10.258C5.44241 10.258 5.72241 10.538 5.72241 10.883C5.72241 11.228 5.44241 11.508 5.09741 11.508C4.75241 11.508 4.46824 11.228 4.46824 10.883C4.46824 10.538 4.74491 10.258 5.08991 10.258H5.09741ZM11.5358 3.39915H6.05416L6.05441 4.20081C6.05441 4.54581 5.77441 4.82581 5.42941 4.82581C5.08441 4.82581 4.80441 4.54581 4.80441 4.20081L4.80396 3.41807C2.9371 3.57489 1.91666 4.70653 1.91666 6.64423V7.00331H15.6667L15.6667 6.64423C15.67 5.61506 15.3933 4.81506 14.8442 4.26506C14.3621 3.78157 13.6574 3.49281 12.7869 3.41846L12.7862 4.20081C12.7862 4.54581 12.5062 4.82581 12.1612 4.82581C11.8162 4.82581 11.5362 4.54581 11.5362 4.20081L11.5358 3.39915Z" fill="#8F9BB7"/>
</svg>
