<svg width="20" height="20" viewBox="0 0 20 20" fill="none" xmlns="http://www.w3.org/2000/svg">
<path d="M12.1742 1.06376C14.9529 0.505714 16.8381 1.7667 17.4043 4.54375L18.9368 12.1747C19.4947 14.9526 18.2345 16.8461 15.4559 17.4042L7.82572 18.9365C5.04703 19.4946 3.15432 18.2342 2.59644 15.4564L1.0639 7.82542C0.505848 5.04673 1.76536 3.15419 4.54405 2.59614L12.1742 1.06376ZM9.4457 5.12212C9.18822 5.02933 8.91044 5.08512 8.71855 5.26815C8.52487 5.45069 8.45417 5.72924 8.52873 5.97775L10.2007 14.3032C10.313 14.6461 10.6588 14.8487 11.0019 14.7798C11.3541 14.709 11.5949 14.3887 11.557 14.0308L9.88498 5.70537C9.86679 5.44554 9.69403 5.21589 9.4457 5.12212ZM6.16841 8.56821C5.91992 8.47362 5.64132 8.52957 5.44944 8.7126C5.25592 8.89596 5.18488 9.17287 5.26043 9.42204L6.39424 15.0676C6.49666 15.4126 6.8433 15.6149 7.19461 15.5444C7.54675 15.4737 7.78755 15.1533 7.74968 14.7954L6.61586 9.14983C6.59016 8.89065 6.41609 8.66297 6.16841 8.56821ZM14.3288 10.0147C14.0811 9.91999 13.8034 9.97578 13.6025 10.1606C13.409 10.344 13.3363 10.6127 13.4217 10.8684L13.9598 13.5482C14.0631 13.893 14.4089 14.0955 14.761 14.0248C15.1042 13.9559 15.345 13.6355 15.3161 13.2759L14.7779 10.596C14.7489 10.329 14.5781 10.1092 14.3288 10.0147Z" fill="#060B27"/>
</svg>
