<svg width="16" height="18" viewBox="0 0 16 18" fill="none" xmlns="http://www.w3.org/2000/svg">
<path d="M11.4925 0.666626C14.0667 0.666626 15.5 2.14996 15.5 4.69163V13.3C15.5 15.8833 14.0667 17.3333 11.4925 17.3333H4.50833C1.975 17.3333 0.5 15.8833 0.5 13.3V4.69163C0.5 2.14996 1.975 0.666626 4.50833 0.666626H11.4925ZM4.73333 12.1166C4.48333 12.0916 4.24167 12.2083 4.10833 12.425C3.975 12.6333 3.975 12.9083 4.10833 13.125C4.24167 13.3333 4.48333 13.4583 4.73333 13.425H11.2667C11.5992 13.3916 11.85 13.1075 11.85 12.775C11.85 12.4333 11.5992 12.15 11.2667 12.1166H4.73333ZM11.2667 8.31579H4.73333C4.37417 8.31579 4.08333 8.60829 4.08333 8.96663C4.08333 9.32496 4.37417 9.61663 4.73333 9.61663H11.2667C11.625 9.61663 11.9167 9.32496 11.9167 8.96663C11.9167 8.60829 11.625 8.31579 11.2667 8.31579ZM7.22417 4.54163H4.73333V4.54996C4.37417 4.54996 4.08333 4.84163 4.08333 5.19996C4.08333 5.55829 4.37417 5.84996 4.73333 5.84996H7.22417C7.58333 5.84996 7.875 5.55829 7.875 5.19079C7.875 4.83329 7.58333 4.54163 7.22417 4.54163Z" fill="#32CAFD"/>
</svg>
