<svg width="18" height="18" viewBox="0 0 18 18" fill="none" xmlns="http://www.w3.org/2000/svg">
<path d="M6.73344 12.1869L10.7789 12.1992C11.0312 12.2001 11.2354 12.4114 11.2354 12.6703V14.9462C11.2354 15.206 11.0878 15.4411 10.8578 15.5498L7.18561 17.2742C7.09981 17.314 7.00886 17.3334 6.91791 17.3334C6.79693 17.3334 6.67595 17.2981 6.57042 17.2282C6.38595 17.1063 6.27441 16.8959 6.27441 16.6705V12.6579C6.27441 12.3972 6.48033 12.186 6.73344 12.1869ZM15.5599 0.666748C16.5397 0.666748 17.3334 1.48429 17.3334 2.49363V3.76988C17.3334 4.25952 17.142 4.72972 16.8022 5.07265L11.3814 10.5559C11.2879 10.6514 11.1609 10.7044 11.0296 10.7035L6.4908 10.6894C6.35266 10.6894 6.22138 10.6302 6.127 10.5268L1.14545 5.0479C0.837429 4.70939 0.666687 4.26217 0.666687 3.79816V2.49451C0.666687 1.48518 1.46034 0.666748 2.44017 0.666748H15.5599Z" fill="#DF2DB1"/>
</svg>
