<svg width="18" height="17" viewBox="0 0 18 17" fill="none" xmlns="http://www.w3.org/2000/svg">
<path d="M6.54169 0.666886C7.31752 0.658694 8.04169 1.01703 8.51669 1.62536L9.25002 2.60036C9.48335 2.89203 9.83335 3.06703 10.2084 3.06703H12.7667C15.8417 3.06703 17.3417 4.70869 17.3334 8.07536V12.1337C17.3334 15.3504 15.35 17.3337 12.125 17.3337H5.86669C2.65835 17.3337 0.666687 15.3504 0.666687 12.1254V5.86703C0.666687 2.41703 2.20002 0.666886 5.22502 0.666886H6.54169ZM12.8584 10.492H5.14169C4.79169 10.492 4.51669 10.767 4.51669 11.117C4.51669 11.4587 4.79169 11.742 5.14169 11.742H12.8584C13.2 11.742 13.475 11.4587 13.475 11.117C13.475 10.767 13.2 10.492 12.8584 10.492Z" fill="#B756FE"/>
</svg>
