<svg width="93" height="94" viewBox="0 0 93 94" fill="none" xmlns="http://www.w3.org/2000/svg">
<path d="M87.7967 57.4246C86.1808 63.8604 83.0828 69.8292 78.75 74.8548C74.4172 79.8803 68.9695 83.8234 62.8418 86.3691C56.7141 88.9149 50.0761 89.9929 43.4577 89.5171C36.8393 89.0412 30.4238 87.0248 24.7233 83.6286C19.0228 80.2325 14.1951 75.5507 10.6258 69.9571C7.05637 64.3634 4.84408 58.0128 4.16549 51.4121C3.48689 44.8114 4.36078 38.1435 6.7174 31.9406C9.07402 25.7377 12.8481 20.1716 17.7384 15.6867L22.3012 20.6619C18.1865 24.4356 15.0109 29.1189 13.028 34.3381C11.0451 39.5573 10.3098 45.1678 10.8808 50.7217C11.4518 56.2756 13.3132 61.6191 16.3165 66.3257C19.3199 71.0323 23.3819 74.9716 28.1784 77.8292C32.9749 80.6867 38.373 82.3834 43.9418 82.7838C49.5106 83.1841 55.0959 82.2771 60.2518 80.135C65.4077 77.993 69.9915 74.6753 73.6372 70.4467C77.2829 66.2182 79.8896 61.1959 81.2492 55.7808L87.7967 57.4246Z" fill="#32CAFD"/>
<path d="M17.648 15.7698C22.4882 11.305 28.2982 8.02406 34.6211 6.1849C40.9439 4.34574 47.6073 3.99856 54.0871 5.17065L52.8855 11.8135C47.4333 10.8273 41.8267 11.1195 36.5065 12.6669C31.1864 14.2144 26.2978 16.9751 22.2252 20.7318L17.648 15.7698Z" fill="#7214FF"/>
<path d="M53.4389 5.05857C59.2732 6.02105 64.843 8.18851 69.7932 11.4228C74.7435 14.6571 78.9656 18.8872 82.1904 23.8436C85.4153 28.8 87.5721 34.3739 88.5235 40.21C89.4749 46.0461 89.1999 52.0164 87.7161 57.7404L81.1814 56.0464C82.4299 51.2302 82.6612 46.2067 81.8608 41.2961C81.0603 36.3855 79.2455 31.6956 76.532 27.5252C73.8186 23.3548 70.2661 19.7955 66.1009 17.0742C61.9357 14.3528 57.2492 12.5291 52.3401 11.7192L53.4389 5.05857Z" fill="#41E88D"/>
</svg>
