<svg width="160" height="120" viewBox="0 0 160 120" fill="none" xmlns="http://www.w3.org/2000/svg">
<line x1="41.0395" y1="12.5262" x2="158.225" y2="40.277" stroke="#282D45" stroke-width="0.80823"/>
<line x1="35.452" y1="36.1204" x2="152.637" y2="63.8712" stroke="#282D45" stroke-width="0.80823"/>
<line x1="29.8646" y1="59.7147" x2="147.05" y2="87.4655" stroke="#282D45" stroke-width="0.80823"/>
<line x1="24.2772" y1="83.3089" x2="141.463" y2="111.06" stroke="#282D45" stroke-width="0.80823"/>
<path d="M21.274 5.95036L19.8972 11.764L21.0581 12.0389L22.6918 5.13992L20.021 4.50742L19.7639 5.59276L21.274 5.95036ZM23.046 8.88168C22.5409 11.0146 23.2888 12.6967 25.1197 13.1303C26.9506 13.5639 28.3829 12.3981 28.888 10.2651C29.3953 8.12275 28.5787 6.39444 26.8138 5.9765C25.0489 5.55857 23.5534 6.73931 23.046 8.88168ZM24.2352 9.16329C24.6218 7.53056 25.4759 6.78595 26.5613 7.04297C27.656 7.30222 28.0855 8.35079 27.6988 9.98352C27.3211 11.5785 26.467 12.3231 25.3723 12.0638C24.2869 11.8068 23.8575 10.7583 24.2352 9.16329ZM29.7004 10.4575C29.1953 12.5904 29.9431 14.2726 31.774 14.7061C33.605 15.1397 35.0372 13.9739 35.5423 11.8409C36.0497 9.69858 35.233 7.97026 33.4681 7.55233C31.7033 7.13439 30.2077 8.31514 29.7004 10.4575ZM30.8895 10.7391C31.2762 9.10638 32.1303 8.36177 33.2156 8.61879C34.3104 8.87805 34.7398 9.92661 34.3532 11.5593C33.9755 13.1543 33.1214 13.8989 32.0266 13.6397C30.9413 13.3827 30.5118 12.3341 30.8895 10.7391Z" fill="#8F9BB7"/>
<path d="M19.7384 31.5005C18.7165 32.3648 18.2997 32.904 18.1031 33.7346C17.7678 35.1502 18.6222 36.5087 20.1134 36.8618C21.5857 37.2105 22.924 36.441 23.2727 34.9688C23.6035 33.572 22.8777 32.3436 21.4526 32.0061C21.2828 31.9659 21.0967 31.9517 20.9157 31.9587L23.088 30.1508L21.7101 29.8245L19.7384 31.5005ZM19.3372 34.0368C19.5338 33.2063 20.2176 32.7602 21.0386 32.9546C21.8314 33.1424 22.2519 33.8499 22.0552 34.6804C21.8563 35.5204 21.1515 35.9714 20.3682 35.7859C19.5565 35.5937 19.1383 34.8767 19.3372 34.0368ZM24.2697 34.0886C23.7646 36.2215 24.5125 37.9036 26.3434 38.3372C28.1743 38.7708 29.6066 37.6049 30.1117 35.472C30.619 33.3296 29.8023 31.6013 28.0375 31.1834C26.2726 30.7654 24.777 31.9462 24.2697 34.0886ZM25.4589 34.3702C25.8455 32.7374 26.6996 31.9928 27.7849 32.2498C28.8797 32.5091 29.3092 33.5577 28.9225 35.1904C28.5448 36.7854 27.6907 37.53 26.5959 37.2707C25.5106 37.0137 25.0812 35.9651 25.4589 34.3702Z" fill="#8F9BB7"/>
<path d="M14.6776 57.5851C15.6402 57.8131 15.9726 58.43 15.8072 59.1284C15.6262 59.8928 15.0097 60.2651 14.2547 60.0863C13.5186 59.912 13.1351 59.3428 13.3228 58.55L12.1337 58.2684C11.7805 59.7596 12.6315 60.8382 13.9811 61.1578C15.3778 61.4886 16.6944 60.8535 17.0296 59.4378C17.3179 58.2203 16.6801 57.252 15.6723 56.794L17.7187 55.6441L17.9467 54.6814L13.5676 53.6444L13.315 54.7109L16.1841 55.3903L14.0231 56.6029L13.8376 57.3862L14.6776 57.5851ZM18.0168 58.3559C17.5117 60.4888 18.2595 62.171 20.0904 62.6045C21.9214 63.0381 23.3536 61.8723 23.8587 59.7394C24.3661 57.597 23.5494 55.8687 21.7845 55.4507C20.0197 55.0328 18.5241 56.2135 18.0168 58.3559ZM19.2059 58.6375C19.5926 57.0048 20.4467 56.2602 21.532 56.5172C22.6268 56.7765 23.0562 57.825 22.6696 59.4578C22.2919 61.0527 21.4378 61.7973 20.343 61.5381C19.2577 61.2811 18.8282 60.2325 19.2059 58.6375Z" fill="#8F9BB7"/>
<path d="M12.3752 82.768C11.8701 84.901 12.618 86.5831 14.4489 87.0167C16.2798 87.4503 17.7121 86.2844 18.2172 84.1515C18.7245 82.0091 17.9078 80.2808 16.143 79.8629C14.3781 79.4449 12.8825 80.6257 12.3752 82.768ZM13.5644 83.0496C13.951 81.4169 14.8051 80.6723 15.8904 80.9293C16.9852 81.1886 17.4147 82.2372 17.028 83.8699C16.6503 85.4649 15.7962 86.2095 14.7014 85.9502C13.6161 85.6932 13.1867 84.6446 13.5644 83.0496Z" fill="#8F9BB7"/>
<path d="M27.5988 74.5441C31.4968 77.959 40.3375 82.8153 46.7951 81.1665C56.0775 78.7965 62.9093 71.5829 69.6436 58.3374C74.9203 47.9588 79.0809 44.7912 89.2843 45.5463C105.089 46.716 110.447 52.6343 113.541 57.1047C116.635 61.5751 117.298 67.546 126.736 69.781C136.173 72.016 144.7 48.287 151.871 49.57" stroke="#32CAFD" stroke-width="1.61646"/>
<path d="M30.02 64.3199C39.0989 63.9782 58.3538 66.3784 62.7419 78.7135C68.2269 94.1323 76.7488 94.7061 80.5621 92.9006C85.2395 90.6859 90.8684 70.4237 102.686 74.8835C114.504 79.3433 131.558 63.4478 133.193 53.0373C134.827 42.6269 147.98 36.1898 156.466 40.6911" stroke="#7214FF" stroke-width="1.61646"/>
</svg>
