<svg width="728" height="186" viewBox="0 0 728 186" fill="none" xmlns="http://www.w3.org/2000/svg">
<rect width="728" height="186" rx="4" fill="#060B27"/>
<path d="M38.75 148.119C38.108 148.119 37.5611 147.945 37.1094 147.595C36.6577 147.243 36.3125 146.733 36.0739 146.065C35.8352 145.395 35.7159 144.585 35.7159 143.636C35.7159 142.693 35.8352 141.888 36.0739 141.22C36.3153 140.55 36.6619 140.038 37.1136 139.686C37.5682 139.331 38.1136 139.153 38.75 139.153C39.3864 139.153 39.9304 139.331 40.3821 139.686C40.8366 140.038 41.1832 140.55 41.4219 141.22C41.6634 141.888 41.7841 142.693 41.7841 143.636C41.7841 144.585 41.6648 145.395 41.4261 146.065C41.1875 146.733 40.8423 147.243 40.3906 147.595C39.9389 147.945 39.392 148.119 38.75 148.119ZM38.75 147.182C39.3864 147.182 39.8807 146.875 40.233 146.261C40.5852 145.648 40.7614 144.773 40.7614 143.636C40.7614 142.881 40.6804 142.237 40.5185 141.706C40.3594 141.175 40.1293 140.77 39.8281 140.491C39.5298 140.213 39.1705 140.074 38.75 140.074C38.1193 140.074 37.6264 140.385 37.2713 141.007C36.9162 141.626 36.7386 142.503 36.7386 143.636C36.7386 144.392 36.8182 145.034 36.9773 145.562C37.1364 146.091 37.3651 146.493 37.6634 146.768C37.9645 147.044 38.3267 147.182 38.75 147.182Z" fill="#444C73"/>
<path d="M52.8295 161.455C52.7784 161.023 52.571 160.688 52.2074 160.449C51.8438 160.21 51.3977 160.091 50.8693 160.091C50.483 160.091 50.1449 160.153 49.8551 160.278C49.5682 160.403 49.3438 160.575 49.1818 160.794C49.0227 161.013 48.9432 161.261 48.9432 161.54C48.9432 161.773 48.9986 161.973 49.1094 162.141C49.223 162.305 49.3679 162.443 49.544 162.554C49.7202 162.662 49.9048 162.751 50.098 162.822C50.2912 162.891 50.4688 162.946 50.6307 162.989L51.517 163.227C51.7443 163.287 51.9972 163.369 52.2756 163.474C52.5568 163.58 52.8253 163.723 53.081 163.905C53.3395 164.084 53.5526 164.314 53.7202 164.595C53.8878 164.876 53.9716 165.222 53.9716 165.631C53.9716 166.102 53.848 166.528 53.6009 166.909C53.3565 167.29 52.9986 167.592 52.527 167.817C52.0582 168.041 51.4886 168.153 50.8182 168.153C50.1932 168.153 49.652 168.053 49.1946 167.851C48.7401 167.649 48.3821 167.368 48.1207 167.007C47.8622 166.646 47.7159 166.227 47.6818 165.75H48.7727C48.8011 166.08 48.9119 166.352 49.1051 166.568C49.3011 166.781 49.5483 166.94 49.8466 167.045C50.1477 167.148 50.4716 167.199 50.8182 167.199C51.2216 167.199 51.5838 167.134 51.9048 167.003C52.2259 166.869 52.4801 166.685 52.6676 166.449C52.8551 166.21 52.9489 165.932 52.9489 165.614C52.9489 165.324 52.8679 165.088 52.706 164.906C52.544 164.724 52.331 164.577 52.0668 164.463C51.8026 164.349 51.517 164.25 51.2102 164.165L50.1364 163.858C49.4545 163.662 48.9148 163.382 48.517 163.018C48.1193 162.655 47.9205 162.179 47.9205 161.591C47.9205 161.102 48.0526 160.676 48.3168 160.312C48.5838 159.946 48.9418 159.662 49.3906 159.46C49.8423 159.256 50.3466 159.153 50.9034 159.153C51.4659 159.153 51.9659 159.254 52.4034 159.456C52.8409 159.655 53.1875 159.928 53.4432 160.274C53.7017 160.621 53.8381 161.014 53.8523 161.455H52.8295ZM57.4989 168.153C57.0842 168.153 56.7077 168.075 56.3697 167.919C56.0316 167.76 55.7631 167.531 55.5643 167.233C55.3654 166.932 55.266 166.568 55.266 166.142C55.266 165.767 55.3398 165.463 55.4876 165.23C55.6353 164.994 55.8327 164.81 56.0799 164.676C56.3271 164.543 56.5998 164.443 56.8981 164.378C57.1992 164.31 57.5018 164.256 57.8058 164.216C58.2035 164.165 58.5259 164.126 58.7731 164.101C59.0231 164.072 59.2049 164.026 59.3185 163.96C59.435 163.895 59.4933 163.781 59.4933 163.619V163.585C59.4933 163.165 59.3782 162.838 59.1481 162.605C58.9208 162.372 58.5756 162.256 58.1126 162.256C57.6325 162.256 57.256 162.361 56.9833 162.571C56.7106 162.781 56.5188 163.006 56.408 163.244L55.4535 162.903C55.6239 162.506 55.8512 162.196 56.1353 161.974C56.4222 161.75 56.7347 161.594 57.0728 161.506C57.4137 161.415 57.7489 161.369 58.0785 161.369C58.2887 161.369 58.5302 161.395 58.8029 161.446C59.0785 161.494 59.3441 161.595 59.5998 161.749C59.8583 161.902 60.0728 162.134 60.2433 162.443C60.4137 162.753 60.4989 163.168 60.4989 163.688V168H59.4933V167.114H59.4421C59.3739 167.256 59.2603 167.408 59.1012 167.57C58.9421 167.732 58.7305 167.869 58.4663 167.983C58.2021 168.097 57.8796 168.153 57.4989 168.153ZM57.6523 167.25C58.0501 167.25 58.3853 167.172 58.658 167.016C58.9336 166.859 59.141 166.658 59.2802 166.411C59.4222 166.163 59.4933 165.903 59.4933 165.631V164.71C59.4506 164.761 59.3569 164.808 59.212 164.851C59.07 164.891 58.9052 164.926 58.7177 164.957C58.533 164.986 58.3526 165.011 58.1765 165.034C58.0032 165.054 57.8626 165.071 57.7546 165.085C57.4933 165.119 57.2489 165.175 57.0217 165.251C56.7972 165.325 56.6154 165.437 56.4762 165.588C56.3398 165.736 56.2717 165.937 56.2717 166.193C56.2717 166.543 56.4009 166.807 56.6594 166.986C56.9208 167.162 57.2518 167.25 57.6523 167.25ZM65.1811 161.455V162.307H61.7891V161.455H65.1811ZM62.7777 159.886H63.7834V166.125C63.7834 166.409 63.8246 166.622 63.907 166.764C63.9922 166.903 64.1001 166.997 64.2308 167.045C64.3643 167.091 64.505 167.114 64.6527 167.114C64.7635 167.114 64.8544 167.108 64.9254 167.097C64.9964 167.082 65.0533 167.071 65.0959 167.062L65.3004 167.966C65.2322 167.991 65.1371 168.017 65.0149 168.043C64.8928 168.071 64.7379 168.085 64.5504 168.085C64.2663 168.085 63.9879 168.024 63.7152 167.902C63.4453 167.78 63.2209 167.594 63.0419 167.344C62.8658 167.094 62.7777 166.778 62.7777 166.398V159.886Z" fill="#444C73"/>
<path d="M131.83 161.455C131.778 161.023 131.571 160.688 131.207 160.449C130.844 160.21 130.398 160.091 129.869 160.091C129.483 160.091 129.145 160.153 128.855 160.278C128.568 160.403 128.344 160.575 128.182 160.794C128.023 161.013 127.943 161.261 127.943 161.54C127.943 161.773 127.999 161.973 128.109 162.141C128.223 162.305 128.368 162.443 128.544 162.554C128.72 162.662 128.905 162.751 129.098 162.822C129.291 162.891 129.469 162.946 129.631 162.989L130.517 163.227C130.744 163.287 130.997 163.369 131.276 163.474C131.557 163.58 131.825 163.723 132.081 163.905C132.339 164.084 132.553 164.314 132.72 164.595C132.888 164.876 132.972 165.222 132.972 165.631C132.972 166.102 132.848 166.528 132.601 166.909C132.357 167.29 131.999 167.592 131.527 167.817C131.058 168.041 130.489 168.153 129.818 168.153C129.193 168.153 128.652 168.053 128.195 167.851C127.74 167.649 127.382 167.368 127.121 167.007C126.862 166.646 126.716 166.227 126.682 165.75H127.773C127.801 166.08 127.912 166.352 128.105 166.568C128.301 166.781 128.548 166.94 128.847 167.045C129.148 167.148 129.472 167.199 129.818 167.199C130.222 167.199 130.584 167.134 130.905 167.003C131.226 166.869 131.48 166.685 131.668 166.449C131.855 166.21 131.949 165.932 131.949 165.614C131.949 165.324 131.868 165.088 131.706 164.906C131.544 164.724 131.331 164.577 131.067 164.463C130.803 164.349 130.517 164.25 130.21 164.165L129.136 163.858C128.455 163.662 127.915 163.382 127.517 163.018C127.119 162.655 126.92 162.179 126.92 161.591C126.92 161.102 127.053 160.676 127.317 160.312C127.584 159.946 127.942 159.662 128.391 159.46C128.842 159.256 129.347 159.153 129.903 159.153C130.466 159.153 130.966 159.254 131.403 159.456C131.841 159.655 132.188 159.928 132.443 160.274C132.702 160.621 132.838 161.014 132.852 161.455H131.83ZM138.698 165.324V161.455H139.703V168H138.698V166.892H138.63C138.476 167.224 138.238 167.507 137.914 167.74C137.59 167.97 137.181 168.085 136.686 168.085C136.277 168.085 135.914 167.996 135.596 167.817C135.277 167.635 135.027 167.362 134.846 166.999C134.664 166.632 134.573 166.17 134.573 165.614V161.455H135.578V165.545C135.578 166.023 135.712 166.403 135.979 166.688C136.249 166.972 136.593 167.114 137.01 167.114C137.26 167.114 137.515 167.05 137.773 166.922C138.034 166.794 138.253 166.598 138.429 166.334C138.608 166.07 138.698 165.733 138.698 165.324ZM142.551 164.062V168H141.545V161.455H142.517V162.477H142.602C142.756 162.145 142.989 161.878 143.301 161.676C143.614 161.472 144.017 161.369 144.511 161.369C144.955 161.369 145.342 161.46 145.675 161.642C146.007 161.821 146.266 162.094 146.45 162.46C146.635 162.824 146.727 163.284 146.727 163.841V168H145.722V163.909C145.722 163.395 145.588 162.994 145.321 162.707C145.054 162.418 144.688 162.273 144.222 162.273C143.901 162.273 143.614 162.342 143.361 162.482C143.111 162.621 142.913 162.824 142.768 163.091C142.624 163.358 142.551 163.682 142.551 164.062Z" fill="#444C73"/>
<path d="M207.057 159.273H208.318L211.284 166.517H211.386L214.352 159.273H215.614V168H214.625V161.369H214.54L211.812 168H210.858L208.131 161.369H208.045V168H207.057V159.273ZM220.255 168.136C219.664 168.136 219.146 167.996 218.7 167.714C218.257 167.433 217.91 167.04 217.66 166.534C217.413 166.028 217.289 165.437 217.289 164.761C217.289 164.08 217.413 163.484 217.66 162.976C217.91 162.467 218.257 162.072 218.7 161.791C219.146 161.51 219.664 161.369 220.255 161.369C220.846 161.369 221.363 161.51 221.806 161.791C222.252 162.072 222.599 162.467 222.846 162.976C223.096 163.484 223.221 164.08 223.221 164.761C223.221 165.437 223.096 166.028 222.846 166.534C222.599 167.04 222.252 167.433 221.806 167.714C221.363 167.996 220.846 168.136 220.255 168.136ZM220.255 167.233C220.704 167.233 221.074 167.118 221.363 166.888C221.653 166.658 221.868 166.355 222.007 165.98C222.146 165.605 222.216 165.199 222.216 164.761C222.216 164.324 222.146 163.916 222.007 163.538C221.868 163.161 221.653 162.855 221.363 162.622C221.074 162.389 220.704 162.273 220.255 162.273C219.806 162.273 219.437 162.389 219.147 162.622C218.858 162.855 218.643 163.161 218.504 163.538C218.365 163.916 218.295 164.324 218.295 164.761C218.295 165.199 218.365 165.605 218.504 165.98C218.643 166.355 218.858 166.658 219.147 166.888C219.437 167.118 219.806 167.233 220.255 167.233ZM225.762 164.062V168H224.756V161.455H225.728V162.477H225.813C225.967 162.145 226.2 161.878 226.512 161.676C226.825 161.472 227.228 161.369 227.722 161.369C228.165 161.369 228.553 161.46 228.886 161.642C229.218 161.821 229.477 162.094 229.661 162.46C229.846 162.824 229.938 163.284 229.938 163.841V168H228.933V163.909C228.933 163.395 228.799 162.994 228.532 162.707C228.265 162.418 227.898 162.273 227.433 162.273C227.112 162.273 226.825 162.342 226.572 162.482C226.322 162.621 226.124 162.824 225.979 163.091C225.835 163.358 225.762 163.682 225.762 164.062Z" fill="#444C73"/>
<path d="M285.58 160.21V159.273H292.125V160.21H289.381V168H288.324V160.21H285.58ZM296.854 165.324V161.455H297.86V168H296.854V166.892H296.786C296.632 167.224 296.394 167.507 296.07 167.74C295.746 167.97 295.337 168.085 294.843 168.085C294.434 168.085 294.07 167.996 293.752 167.817C293.434 167.635 293.184 167.362 293.002 166.999C292.82 166.632 292.729 166.17 292.729 165.614V161.455H293.735V165.545C293.735 166.023 293.868 166.403 294.135 166.688C294.405 166.972 294.749 167.114 295.167 167.114C295.417 167.114 295.671 167.05 295.929 166.922C296.191 166.794 296.409 166.598 296.586 166.334C296.765 166.07 296.854 165.733 296.854 165.324ZM304.338 162.92L303.435 163.176C303.378 163.026 303.294 162.879 303.183 162.737C303.075 162.592 302.928 162.473 302.74 162.379C302.553 162.286 302.312 162.239 302.02 162.239C301.619 162.239 301.286 162.331 301.018 162.516C300.754 162.697 300.622 162.929 300.622 163.21C300.622 163.46 300.713 163.658 300.895 163.803C301.077 163.947 301.361 164.068 301.747 164.165L302.719 164.403C303.304 164.545 303.74 164.763 304.027 165.055C304.314 165.345 304.457 165.719 304.457 166.176C304.457 166.551 304.349 166.886 304.134 167.182C303.92 167.477 303.622 167.71 303.239 167.881C302.855 168.051 302.409 168.136 301.901 168.136C301.233 168.136 300.68 167.991 300.243 167.702C299.805 167.412 299.528 166.989 299.412 166.432L300.366 166.193C300.457 166.545 300.629 166.81 300.882 166.986C301.138 167.162 301.472 167.25 301.884 167.25C302.352 167.25 302.724 167.151 303 166.952C303.278 166.75 303.418 166.509 303.418 166.227C303.418 166 303.338 165.81 303.179 165.656C303.02 165.5 302.776 165.384 302.446 165.307L301.355 165.051C300.756 164.909 300.315 164.689 300.034 164.391C299.756 164.089 299.616 163.713 299.616 163.261C299.616 162.892 299.72 162.565 299.928 162.281C300.138 161.997 300.423 161.774 300.784 161.612C301.148 161.45 301.56 161.369 302.02 161.369C302.668 161.369 303.176 161.511 303.545 161.795C303.918 162.08 304.182 162.455 304.338 162.92Z" fill="#444C73"/>
<path d="M373.642 168L371.256 159.273H372.33L374.153 166.381H374.239L376.097 159.273H377.29L379.148 166.381H379.233L381.057 159.273H382.131L379.744 168H378.653L376.727 161.045H376.659L374.733 168H373.642ZM385.446 168.136C384.815 168.136 384.271 167.997 383.814 167.719C383.359 167.438 383.009 167.045 382.761 166.543C382.517 166.037 382.395 165.449 382.395 164.778C382.395 164.108 382.517 163.517 382.761 163.006C383.009 162.491 383.352 162.091 383.793 161.804C384.236 161.514 384.753 161.369 385.344 161.369C385.685 161.369 386.021 161.426 386.354 161.54C386.686 161.653 386.989 161.838 387.261 162.094C387.534 162.347 387.751 162.682 387.913 163.099C388.075 163.517 388.156 164.031 388.156 164.642V165.068H383.111V164.199H387.134C387.134 163.83 387.06 163.5 386.912 163.21C386.767 162.92 386.56 162.692 386.29 162.524C386.023 162.357 385.707 162.273 385.344 162.273C384.943 162.273 384.597 162.372 384.304 162.571C384.014 162.767 383.791 163.023 383.635 163.338C383.479 163.653 383.401 163.991 383.401 164.352V164.932C383.401 165.426 383.486 165.845 383.656 166.189C383.83 166.53 384.07 166.79 384.376 166.969C384.683 167.145 385.04 167.233 385.446 167.233C385.71 167.233 385.949 167.196 386.162 167.122C386.378 167.045 386.564 166.932 386.72 166.781C386.876 166.628 386.997 166.437 387.082 166.21L388.054 166.483C387.952 166.812 387.78 167.102 387.538 167.352C387.297 167.599 386.999 167.793 386.643 167.932C386.288 168.068 385.889 168.136 385.446 168.136ZM390.692 164.062V168H389.686V161.455H390.658V162.477H390.743C390.896 162.145 391.129 161.878 391.442 161.676C391.754 161.472 392.158 161.369 392.652 161.369C393.095 161.369 393.483 161.46 393.815 161.642C394.148 161.821 394.406 162.094 394.591 162.46C394.776 162.824 394.868 163.284 394.868 163.841V168H393.862V163.909C393.862 163.395 393.729 162.994 393.462 162.707C393.195 162.418 392.828 162.273 392.362 162.273C392.041 162.273 391.754 162.342 391.501 162.482C391.251 162.621 391.054 162.824 390.909 163.091C390.764 163.358 390.692 163.682 390.692 164.062Z" fill="#444C73"/>
<path d="M450.58 160.21V159.273H457.125V160.21H454.381V168H453.324V160.21H450.58ZM459.625 164.062V168H458.62V159.273H459.625V162.477H459.711C459.864 162.139 460.094 161.871 460.401 161.672C460.711 161.47 461.123 161.369 461.637 161.369C462.083 161.369 462.473 161.459 462.809 161.638C463.144 161.814 463.404 162.085 463.588 162.452C463.776 162.815 463.87 163.278 463.87 163.841V168H462.864V163.909C462.864 163.389 462.729 162.987 462.459 162.703C462.192 162.416 461.821 162.273 461.347 162.273C461.017 162.273 460.722 162.342 460.461 162.482C460.202 162.621 459.998 162.824 459.847 163.091C459.699 163.358 459.625 163.682 459.625 164.062ZM468.454 168.136C467.823 168.136 467.279 167.997 466.822 167.719C466.367 167.438 466.016 167.045 465.769 166.543C465.525 166.037 465.403 165.449 465.403 164.778C465.403 164.108 465.525 163.517 465.769 163.006C466.016 162.491 466.36 162.091 466.8 161.804C467.244 161.514 467.761 161.369 468.352 161.369C468.692 161.369 469.029 161.426 469.362 161.54C469.694 161.653 469.996 161.838 470.269 162.094C470.542 162.347 470.759 162.682 470.921 163.099C471.083 163.517 471.164 164.031 471.164 164.642V165.068H466.119V164.199H470.141C470.141 163.83 470.067 163.5 469.92 163.21C469.775 162.92 469.567 162.692 469.298 162.524C469.031 162.357 468.715 162.273 468.352 162.273C467.951 162.273 467.604 162.372 467.312 162.571C467.022 162.767 466.799 163.023 466.643 163.338C466.487 163.653 466.408 163.991 466.408 164.352V164.932C466.408 165.426 466.494 165.845 466.664 166.189C466.837 166.53 467.077 166.79 467.384 166.969C467.691 167.145 468.048 167.233 468.454 167.233C468.718 167.233 468.957 167.196 469.17 167.122C469.386 167.045 469.572 166.932 469.728 166.781C469.884 166.628 470.005 166.437 470.09 166.21L471.062 166.483C470.96 166.812 470.788 167.102 470.546 167.352C470.305 167.599 470.006 167.793 469.651 167.932C469.296 168.068 468.897 168.136 468.454 168.136Z" fill="#444C73"/>
<path d="M531.057 168V159.273H536.29V160.21H532.114V163.159H535.898V164.097H532.114V168H531.057ZM537.893 168V161.455H538.865V162.443H538.933C539.052 162.119 539.268 161.857 539.581 161.655C539.893 161.453 540.245 161.352 540.637 161.352C540.711 161.352 540.804 161.354 540.914 161.357C541.025 161.359 541.109 161.364 541.166 161.369V162.392C541.132 162.384 541.054 162.371 540.931 162.354C540.812 162.334 540.686 162.324 540.552 162.324C540.234 162.324 539.95 162.391 539.7 162.524C539.453 162.655 539.257 162.837 539.112 163.07C538.97 163.3 538.899 163.562 538.899 163.858V168H537.893ZM542.358 168V161.455H543.364V168H542.358ZM542.869 160.364C542.673 160.364 542.504 160.297 542.362 160.163C542.223 160.03 542.153 159.869 542.153 159.682C542.153 159.494 542.223 159.334 542.362 159.2C542.504 159.067 542.673 159 542.869 159C543.065 159 543.233 159.067 543.372 159.2C543.514 159.334 543.585 159.494 543.585 159.682C543.585 159.869 543.514 160.03 543.372 160.163C543.233 160.297 543.065 160.364 542.869 160.364Z" fill="#444C73"/>
<path d="M620.83 161.455C620.778 161.023 620.571 160.688 620.207 160.449C619.844 160.21 619.398 160.091 618.869 160.091C618.483 160.091 618.145 160.153 617.855 160.278C617.568 160.403 617.344 160.575 617.182 160.794C617.023 161.013 616.943 161.261 616.943 161.54C616.943 161.773 616.999 161.973 617.109 162.141C617.223 162.305 617.368 162.443 617.544 162.554C617.72 162.662 617.905 162.751 618.098 162.822C618.291 162.891 618.469 162.946 618.631 162.989L619.517 163.227C619.744 163.287 619.997 163.369 620.276 163.474C620.557 163.58 620.825 163.723 621.081 163.905C621.339 164.084 621.553 164.314 621.72 164.595C621.888 164.876 621.972 165.222 621.972 165.631C621.972 166.102 621.848 166.528 621.601 166.909C621.357 167.29 620.999 167.592 620.527 167.817C620.058 168.041 619.489 168.153 618.818 168.153C618.193 168.153 617.652 168.053 617.195 167.851C616.74 167.649 616.382 167.368 616.121 167.007C615.862 166.646 615.716 166.227 615.682 165.75H616.773C616.801 166.08 616.912 166.352 617.105 166.568C617.301 166.781 617.548 166.94 617.847 167.045C618.148 167.148 618.472 167.199 618.818 167.199C619.222 167.199 619.584 167.134 619.905 167.003C620.226 166.869 620.48 166.685 620.668 166.449C620.855 166.21 620.949 165.932 620.949 165.614C620.949 165.324 620.868 165.088 620.706 164.906C620.544 164.724 620.331 164.577 620.067 164.463C619.803 164.349 619.517 164.25 619.21 164.165L618.136 163.858C617.455 163.662 616.915 163.382 616.517 163.018C616.119 162.655 615.92 162.179 615.92 161.591C615.92 161.102 616.053 160.676 616.317 160.312C616.584 159.946 616.942 159.662 617.391 159.46C617.842 159.256 618.347 159.153 618.903 159.153C619.466 159.153 619.966 159.254 620.403 159.456C620.841 159.655 621.188 159.928 621.443 160.274C621.702 160.621 621.838 161.014 621.852 161.455H620.83ZM625.499 168.153C625.084 168.153 624.708 168.075 624.37 167.919C624.032 167.76 623.763 167.531 623.564 167.233C623.365 166.932 623.266 166.568 623.266 166.142C623.266 165.767 623.34 165.463 623.488 165.23C623.635 164.994 623.833 164.81 624.08 164.676C624.327 164.543 624.6 164.443 624.898 164.378C625.199 164.31 625.502 164.256 625.806 164.216C626.203 164.165 626.526 164.126 626.773 164.101C627.023 164.072 627.205 164.026 627.319 163.96C627.435 163.895 627.493 163.781 627.493 163.619V163.585C627.493 163.165 627.378 162.838 627.148 162.605C626.921 162.372 626.576 162.256 626.113 162.256C625.632 162.256 625.256 162.361 624.983 162.571C624.711 162.781 624.519 163.006 624.408 163.244L623.453 162.903C623.624 162.506 623.851 162.196 624.135 161.974C624.422 161.75 624.735 161.594 625.073 161.506C625.414 161.415 625.749 161.369 626.078 161.369C626.289 161.369 626.53 161.395 626.803 161.446C627.078 161.494 627.344 161.595 627.6 161.749C627.858 161.902 628.073 162.134 628.243 162.443C628.414 162.753 628.499 163.168 628.499 163.688V168H627.493V167.114H627.442C627.374 167.256 627.26 167.408 627.101 167.57C626.942 167.732 626.73 167.869 626.466 167.983C626.202 168.097 625.88 168.153 625.499 168.153ZM625.652 167.25C626.05 167.25 626.385 167.172 626.658 167.016C626.934 166.859 627.141 166.658 627.28 166.411C627.422 166.163 627.493 165.903 627.493 165.631V164.71C627.451 164.761 627.357 164.808 627.212 164.851C627.07 164.891 626.905 164.926 626.718 164.957C626.533 164.986 626.353 165.011 626.176 165.034C626.003 165.054 625.863 165.071 625.755 165.085C625.493 165.119 625.249 165.175 625.022 165.251C624.797 165.325 624.615 165.437 624.476 165.588C624.34 165.736 624.272 165.937 624.272 166.193C624.272 166.543 624.401 166.807 624.659 166.986C624.921 167.162 625.252 167.25 625.652 167.25ZM633.181 161.455V162.307H629.789V161.455H633.181ZM630.778 159.886H631.783V166.125C631.783 166.409 631.825 166.622 631.907 166.764C631.992 166.903 632.1 166.997 632.231 167.045C632.364 167.091 632.505 167.114 632.653 167.114C632.763 167.114 632.854 167.108 632.925 167.097C632.996 167.082 633.053 167.071 633.096 167.062L633.3 167.966C633.232 167.991 633.137 168.017 633.015 168.043C632.893 168.071 632.738 168.085 632.55 168.085C632.266 168.085 631.988 168.024 631.715 167.902C631.445 167.78 631.221 167.594 631.042 167.344C630.866 167.094 630.778 166.778 630.778 166.398V159.886Z" fill="#444C73"/>
<path d="M698.83 161.455C698.778 161.023 698.571 160.688 698.207 160.449C697.844 160.21 697.398 160.091 696.869 160.091C696.483 160.091 696.145 160.153 695.855 160.278C695.568 160.403 695.344 160.575 695.182 160.794C695.023 161.013 694.943 161.261 694.943 161.54C694.943 161.773 694.999 161.973 695.109 162.141C695.223 162.305 695.368 162.443 695.544 162.554C695.72 162.662 695.905 162.751 696.098 162.822C696.291 162.891 696.469 162.946 696.631 162.989L697.517 163.227C697.744 163.287 697.997 163.369 698.276 163.474C698.557 163.58 698.825 163.723 699.081 163.905C699.339 164.084 699.553 164.314 699.72 164.595C699.888 164.876 699.972 165.222 699.972 165.631C699.972 166.102 699.848 166.528 699.601 166.909C699.357 167.29 698.999 167.592 698.527 167.817C698.058 168.041 697.489 168.153 696.818 168.153C696.193 168.153 695.652 168.053 695.195 167.851C694.74 167.649 694.382 167.368 694.121 167.007C693.862 166.646 693.716 166.227 693.682 165.75H694.773C694.801 166.08 694.912 166.352 695.105 166.568C695.301 166.781 695.548 166.94 695.847 167.045C696.148 167.148 696.472 167.199 696.818 167.199C697.222 167.199 697.584 167.134 697.905 167.003C698.226 166.869 698.48 166.685 698.668 166.449C698.855 166.21 698.949 165.932 698.949 165.614C698.949 165.324 698.868 165.088 698.706 164.906C698.544 164.724 698.331 164.577 698.067 164.463C697.803 164.349 697.517 164.25 697.21 164.165L696.136 163.858C695.455 163.662 694.915 163.382 694.517 163.018C694.119 162.655 693.92 162.179 693.92 161.591C693.92 161.102 694.053 160.676 694.317 160.312C694.584 159.946 694.942 159.662 695.391 159.46C695.842 159.256 696.347 159.153 696.903 159.153C697.466 159.153 697.966 159.254 698.403 159.456C698.841 159.655 699.188 159.928 699.443 160.274C699.702 160.621 699.838 161.014 699.852 161.455H698.83ZM705.698 165.324V161.455H706.703V168H705.698V166.892H705.63C705.476 167.224 705.238 167.507 704.914 167.74C704.59 167.97 704.181 168.085 703.686 168.085C703.277 168.085 702.914 167.996 702.596 167.817C702.277 167.635 702.027 167.362 701.846 166.999C701.664 166.632 701.573 166.17 701.573 165.614V161.455H702.578V165.545C702.578 166.023 702.712 166.403 702.979 166.688C703.249 166.972 703.593 167.114 704.01 167.114C704.26 167.114 704.515 167.05 704.773 166.922C705.034 166.794 705.253 166.598 705.429 166.334C705.608 166.07 705.698 165.733 705.698 165.324ZM709.551 164.062V168H708.545V161.455H709.517V162.477H709.602C709.756 162.145 709.989 161.878 710.301 161.676C710.614 161.472 711.017 161.369 711.511 161.369C711.955 161.369 712.342 161.46 712.675 161.642C713.007 161.821 713.266 162.094 713.45 162.46C713.635 162.824 713.727 163.284 713.727 163.841V168H712.722V163.909C712.722 163.395 712.588 162.994 712.321 162.707C712.054 162.418 711.688 162.273 711.222 162.273C710.901 162.273 710.614 162.342 710.361 162.482C710.111 162.621 709.913 162.824 709.768 163.091C709.624 163.358 709.551 163.682 709.551 164.062Z" fill="#444C73"/>
<path d="M32.6307 109.119C32.1307 109.119 31.6804 109.02 31.2798 108.821C30.8793 108.622 30.5582 108.349 30.3168 108.003C30.0753 107.656 29.9432 107.261 29.9205 106.818H30.9432C30.983 107.213 31.1619 107.54 31.4801 107.798C31.8011 108.054 32.1847 108.182 32.6307 108.182C32.9886 108.182 33.3068 108.098 33.5852 107.93C33.8665 107.763 34.0866 107.533 34.2457 107.24C34.4077 106.945 34.4886 106.611 34.4886 106.239C34.4886 105.858 34.4048 105.518 34.2372 105.22C34.0724 104.919 33.8452 104.682 33.5554 104.509C33.2656 104.335 32.9347 104.247 32.5625 104.244C32.2955 104.241 32.0213 104.283 31.7401 104.368C31.4588 104.45 31.2273 104.557 31.0455 104.688L30.0568 104.568L30.5852 100.273H35.1193V101.21H31.4716L31.1648 103.784H31.2159C31.3949 103.642 31.6193 103.524 31.8892 103.43C32.1591 103.337 32.4403 103.29 32.733 103.29C33.267 103.29 33.7429 103.418 34.1605 103.673C34.581 103.926 34.9105 104.273 35.1491 104.713C35.3906 105.153 35.5114 105.656 35.5114 106.222C35.5114 106.778 35.3864 107.276 35.1364 107.713C34.8892 108.148 34.5483 108.491 34.1136 108.744C33.679 108.994 33.1847 109.119 32.6307 109.119ZM38.1587 106.614L38.1417 105.369H38.3462L41.2099 102.455H42.4542L39.4031 105.54H39.3178L38.1587 106.614ZM37.2212 109V100.273H38.2269V109H37.2212ZM41.3803 109L38.8235 105.761L39.5394 105.062L42.6587 109H41.3803Z" fill="#444C73"/>
<path d="M26.9716 57.2727V66H25.9148V58.3807H25.8636L23.733 59.7955V58.7216L25.9148 57.2727H26.9716ZM32.3281 66.1193C31.6861 66.1193 31.1392 65.9446 30.6875 65.5952C30.2358 65.2429 29.8906 64.733 29.652 64.0653C29.4134 63.3949 29.294 62.5852 29.294 61.6364C29.294 60.6932 29.4134 59.8878 29.652 59.2202C29.8935 58.5497 30.2401 58.0384 30.6918 57.6861C31.1463 57.331 31.6918 57.1534 32.3281 57.1534C32.9645 57.1534 33.5085 57.331 33.9602 57.6861C34.4148 58.0384 34.7614 58.5497 35 59.2202C35.2415 59.8878 35.3622 60.6932 35.3622 61.6364C35.3622 62.5852 35.2429 63.3949 35.0043 64.0653C34.7656 64.733 34.4205 65.2429 33.9688 65.5952C33.517 65.9446 32.9702 66.1193 32.3281 66.1193ZM32.3281 65.1818C32.9645 65.1818 33.4588 64.875 33.8111 64.2614C34.1634 63.6477 34.3395 62.7727 34.3395 61.6364C34.3395 60.8807 34.2585 60.2372 34.0966 59.706C33.9375 59.1747 33.7074 58.7699 33.4062 58.4915C33.108 58.2131 32.7486 58.0739 32.3281 58.0739C31.6974 58.0739 31.2045 58.3849 30.8494 59.0071C30.4943 59.6264 30.3168 60.5028 30.3168 61.6364C30.3168 62.392 30.3963 63.0341 30.5554 63.5625C30.7145 64.0909 30.9432 64.4929 31.2415 64.7685C31.5426 65.044 31.9048 65.1818 32.3281 65.1818ZM37.9361 63.6136L37.919 62.3693H38.1236L40.9872 59.4545H42.2315L39.1804 62.5398H39.0952L37.9361 63.6136ZM36.9986 66V57.2727H38.0043V66H36.9986ZM41.1577 66L38.6009 62.7614L39.3168 62.0625L42.4361 66H41.1577Z" fill="#444C73"/>
<path d="M18.9716 18.2727V27H17.9148V19.3807H17.8636L15.733 20.7955V19.7216L17.9148 18.2727H18.9716ZM24.3281 27.1193C23.6861 27.1193 23.1392 26.9446 22.6875 26.5952C22.2358 26.2429 21.8906 25.733 21.652 25.0653C21.4134 24.3949 21.294 23.5852 21.294 22.6364C21.294 21.6932 21.4134 20.8878 21.652 20.2202C21.8935 19.5497 22.2401 19.0384 22.6918 18.6861C23.1463 18.331 23.6918 18.1534 24.3281 18.1534C24.9645 18.1534 25.5085 18.331 25.9602 18.6861C26.4148 19.0384 26.7614 19.5497 27 20.2202C27.2415 20.8878 27.3622 21.6932 27.3622 22.6364C27.3622 23.5852 27.2429 24.3949 27.0043 25.0653C26.7656 25.733 26.4205 26.2429 25.9688 26.5952C25.517 26.9446 24.9702 27.1193 24.3281 27.1193ZM24.3281 26.1818C24.9645 26.1818 25.4588 25.875 25.8111 25.2614C26.1634 24.6477 26.3395 23.7727 26.3395 22.6364C26.3395 21.8807 26.2585 21.2372 26.0966 20.706C25.9375 20.1747 25.7074 19.7699 25.4062 19.4915C25.108 19.2131 24.7486 19.0739 24.3281 19.0739C23.6974 19.0739 23.2045 19.3849 22.8494 20.0071C22.4943 20.6264 22.3168 21.5028 22.3168 22.6364C22.3168 23.392 22.3963 24.0341 22.5554 24.5625C22.7145 25.0909 22.9432 25.4929 23.2415 25.7685C23.5426 26.044 23.9048 26.1818 24.3281 26.1818ZM31.8281 27.1193C31.1861 27.1193 30.6392 26.9446 30.1875 26.5952C29.7358 26.2429 29.3906 25.733 29.152 25.0653C28.9134 24.3949 28.794 23.5852 28.794 22.6364C28.794 21.6932 28.9134 20.8878 29.152 20.2202C29.3935 19.5497 29.7401 19.0384 30.1918 18.6861C30.6463 18.331 31.1918 18.1534 31.8281 18.1534C32.4645 18.1534 33.0085 18.331 33.4602 18.6861C33.9148 19.0384 34.2614 19.5497 34.5 20.2202C34.7415 20.8878 34.8622 21.6932 34.8622 22.6364C34.8622 23.5852 34.7429 24.3949 34.5043 25.0653C34.2656 25.733 33.9205 26.2429 33.4688 26.5952C33.017 26.9446 32.4702 27.1193 31.8281 27.1193ZM31.8281 26.1818C32.4645 26.1818 32.9588 25.875 33.3111 25.2614C33.6634 24.6477 33.8395 23.7727 33.8395 22.6364C33.8395 21.8807 33.7585 21.2372 33.5966 20.706C33.4375 20.1747 33.2074 19.7699 32.9062 19.4915C32.608 19.2131 32.2486 19.0739 31.8281 19.0739C31.1974 19.0739 30.7045 19.3849 30.3494 20.0071C29.9943 20.6264 29.8168 21.5028 29.8168 22.6364C29.8168 23.392 29.8963 24.0341 30.0554 24.5625C30.2145 25.0909 30.4432 25.4929 30.7415 25.7685C31.0426 26.044 31.4048 26.1818 31.8281 26.1818ZM37.4361 24.6136L37.419 23.3693H37.6236L40.4872 20.4545H41.7315L38.6804 23.5398H38.5952L37.4361 24.6136ZM36.4986 27V18.2727H37.5043V27H36.4986ZM40.6577 27L38.1009 23.7614L38.8168 23.0625L41.9361 27H40.6577Z" fill="#444C73"/>
<line x1="55.5" y1="16" x2="55.5" y2="151" stroke="#151934" stroke-dasharray="4 4"/>
<line x1="136.5" y1="16" x2="136.5" y2="151" stroke="#151934" stroke-dasharray="4 4"/>
<line x1="217.5" y1="16" x2="217.5" y2="151" stroke="#151934" stroke-dasharray="4 4"/>
<line x1="298.5" y1="16" x2="298.5" y2="151" stroke="#151934" stroke-dasharray="4 4"/>
<line x1="379.5" y1="16" x2="379.5" y2="151" stroke="#151934" stroke-dasharray="4 4"/>
<line x1="460.5" y1="16" x2="460.5" y2="151" stroke="#151934" stroke-dasharray="4 4"/>
<line x1="541.5" y1="16" x2="541.5" y2="151" stroke="#151934" stroke-dasharray="4 4"/>
<line x1="622.5" y1="16" x2="622.5" y2="151" stroke="#151934" stroke-dasharray="4 4"/>
<line x1="703.5" y1="16" x2="703.5" y2="151" stroke="#151934" stroke-dasharray="4 4"/>
<path d="M91.469 112.583L57 82.3151V151H688V101.228L671.674 106.162C666.877 107.611 661.747 105.286 659.676 100.722L642.719 63.3595C640.861 59.267 636.502 56.9163 632.062 57.6133L607.365 61.4902C603.764 62.0553 600.141 60.617 597.909 57.7362L591.703 49.7272C588.375 45.4315 582.225 44.5804 577.855 47.8105L523.209 88.2013C519.566 90.8939 514.569 90.8014 511.028 87.9761L485.884 67.9122C481.942 64.7668 476.275 65.0486 472.665 68.5697L450.767 89.9261C448.9 91.7476 446.394 92.7671 443.785 92.7671H416.104C413.64 92.7671 411.263 91.8573 409.428 90.2122L374.939 59.2854C372.908 57.4639 370.22 56.5515 367.5 56.7596L296.991 62.1537C294.845 62.3178 292.81 63.1693 291.188 64.5819L256.485 94.7892C254.665 96.3738 252.333 97.2466 249.92 97.2466H217.943C214.909 97.2466 212.04 98.6239 210.142 100.991L185.945 131.166C183.542 134.163 179.634 135.518 175.891 134.653L153.724 129.529C152.501 129.246 151.341 128.735 150.307 128.023L126.081 111.348C123.637 109.666 120.573 109.156 117.717 109.955L100.762 114.699C97.5056 115.61 94.0096 114.814 91.469 112.583Z" fill="url(#paint0_linear_194_179)"/>
<path d="M57 82.2857L91.4704 112.533C94.0104 114.762 97.5042 115.557 100.759 114.647L117.719 109.905C120.575 109.107 123.637 109.617 126.079 111.297L150.307 127.96C151.341 128.672 152.5 129.182 153.723 129.465L175.895 134.586C179.636 135.451 183.542 134.096 185.945 131.102L210.142 100.948C212.04 98.5825 214.909 97.2064 217.941 97.2064H249.922C252.334 97.2064 254.665 96.3345 256.485 94.7514L291.188 64.565C292.811 63.1537 294.845 62.303 296.989 62.1391L367.502 56.7487C370.221 56.5408 372.907 57.4523 374.938 59.2721L409.429 90.1777C411.263 91.8213 413.639 92.7302 416.102 92.7302H443.787C446.395 92.7302 448.899 91.7116 450.767 89.8917L472.667 68.5481C476.277 65.0302 481.94 64.7486 485.881 67.8909L511.031 87.9447C514.57 90.7672 519.565 90.8596 523.206 88.1698L577.858 47.8037C582.227 44.5767 588.373 45.4273 591.702 49.7197L597.909 57.725C600.142 60.6038 603.763 62.041 607.362 61.4764L632.065 57.6014C636.503 56.9052 640.861 59.2546 642.719 63.3454L659.675 100.678C661.747 105.24 666.875 107.564 671.671 106.116L688 101.185" stroke="url(#paint1_linear_194_179)" stroke-width="2" stroke-linecap="round"/>
<circle cx="694" cy="99" r="6.125" stroke="#7214FF" stroke-width="1.75"/>
<circle cx="694" cy="99" r="2" fill="#7214FF"/>
<defs>
<linearGradient id="paint0_linear_194_179" x1="372.5" y1="42" x2="372.5" y2="151" gradientUnits="userSpaceOnUse">
<stop stop-color="#7214FF" stop-opacity="0.29"/>
<stop offset="1" stop-color="#7214FF" stop-opacity="0"/>
</linearGradient>
<linearGradient id="paint1_linear_194_179" x1="372.5" y1="42" x2="372.5" y2="136" gradientUnits="userSpaceOnUse">
<stop stop-color="#7214FF"/>
<stop offset="1" stop-color="#7214FF"/>
</linearGradient>
</defs>
</svg>
