<svg width="18" height="18" viewBox="0 0 18 18" fill="none" xmlns="http://www.w3.org/2000/svg">
<g clip-path="url(#clip0_253_67)">
<path d="M14.9833 9.28592C14.8935 10.1286 14.6059 10.9382 14.144 11.6488C13.5952 12.5008 12.8201 13.1831 11.9055 13.6195C10.9908 14.0558 9.97276 14.2289 8.9653 14.1193C8.12257 14.0295 7.31297 13.7419 6.60243 13.28L2.83165 14.0956L4.44163 10.5896C4.14389 9.79614 4.03778 8.94356 4.13195 8.10131C4.24231 7.09394 4.63096 6.13719 5.25437 5.33823C5.87777 4.53927 6.7113 3.92964 7.6616 3.57765C8.45507 3.2799 9.30766 3.17379 10.1499 3.26796L10.4691 3.3028C11.7915 3.52144 12.9868 4.22019 13.8262 5.26526C14.6656 6.31033 15.0899 7.62828 15.0181 8.96676L14.9833 9.28592Z" stroke="#8F9BB7" stroke-width="1.54105" stroke-linecap="round" stroke-linejoin="round"/>
</g>
<defs>
<clipPath id="clip0_253_67">
<rect width="15.4105" height="15.4105" fill="white" transform="translate(2.38 0.481934) rotate(6.23012)"/>
</clipPath>
</defs>
</svg>
