<svg width="18" height="20" viewBox="0 0 18 20" fill="none" xmlns="http://www.w3.org/2000/svg">
<path d="M8.3408 0.103698C8.73333 -0.034566 9.16611 -0.034566 9.56871 0.103698L16.2014 2.32867C16.9462 2.57382 17.4495 3.26122 17.4495 4.02608L17.4999 10.6637C17.5099 12.674 16.7751 14.6253 15.4264 16.1561C14.8125 16.8621 14.0174 17.4603 13.0109 17.9996L9.43787 19.9117C9.32715 19.9706 9.20637 20 9.0856 20C8.96482 20 8.83397 19.9706 8.72326 19.9117L5.12005 18.0486C4.1035 17.5191 3.30838 16.9307 2.68436 16.2345C1.31554 14.7244 0.550616 12.773 0.540552 10.7628L0.500144 4.12316C0.490227 3.3583 0.993469 2.67286 1.7282 2.41693L8.3408 0.103698ZM7.63626 7.35913C7.34438 7.07476 6.87133 7.07476 6.56939 7.35913C6.27751 7.65429 6.27751 8.11517 6.56939 8.39954L7.92814 9.72237L6.56939 11.0472C6.27751 11.3315 6.27751 11.8022 6.56939 12.0866C6.72036 12.2337 6.91159 12.3013 7.10282 12.3013C7.30412 12.3013 7.49535 12.2337 7.63626 12.0866L8.99501 10.7628L10.3538 12.0866C10.5047 12.2337 10.696 12.3013 10.8872 12.3013C11.0784 12.3013 11.2797 12.2337 11.4206 12.0866C11.7125 11.8022 11.7125 11.3315 11.4206 11.0472L10.0619 9.72237L11.4206 8.39954C11.7125 8.11517 11.7125 7.65429 11.4206 7.35913C11.1288 7.07476 10.6456 7.07476 10.3538 7.35913L8.99501 8.68392L7.63626 7.35913Z" fill="#32CAFD"/>
</svg>
