<svg width="18" height="14" viewBox="0 0 18 14" fill="none" xmlns="http://www.w3.org/2000/svg">
<path d="M9.3635 0.333252C9.63429 0.333252 9.85431 0.546992 9.85431 0.810841V2.81515C9.85431 3.13615 10.1283 3.40235 10.4588 3.40235C10.7972 3.40235 11.0632 3.13615 11.0632 2.81515V0.810841C11.0632 0.546992 11.2832 0.333252 11.5548 0.333252H14.1822C15.923 0.333252 17.3334 1.70338 17.3334 3.39452V5.36751C17.3334 5.52409 17.2689 5.67285 17.156 5.78246C17.0432 5.89207 16.8901 5.9547 16.7289 5.9547C16.1325 5.9547 15.649 6.42446 15.649 6.996C15.649 7.57146 16.1269 8.03887 16.7176 8.04513C17.0505 8.04826 17.3334 8.27375 17.3334 8.5971V10.6053C17.3334 12.2957 15.923 13.6666 14.1822 13.6666H11.5548C11.2832 13.6666 11.0632 13.4528 11.0632 13.189V11.4979C11.0632 11.169 10.7972 10.9107 10.4588 10.9107C10.1283 10.9107 9.85431 11.169 9.85431 11.4979V13.189C9.85431 13.4528 9.63429 13.6666 9.3635 13.6666H3.81788C2.08513 13.6666 0.666687 12.2965 0.666687 10.6053V8.5971C0.666687 8.27375 0.949569 8.04826 1.28242 8.04513C1.87397 8.03887 2.35108 7.57146 2.35108 6.996C2.35108 6.44012 1.88364 6.01734 1.27114 6.01734C1.10995 6.01734 0.956822 5.9547 0.843992 5.84509C0.731162 5.73548 0.666687 5.58673 0.666687 5.43014V3.40235C0.666687 1.71434 2.08835 0.333252 3.82594 0.333252H9.3635ZM10.4588 5.08565C10.1283 5.08565 9.85431 5.35185 9.85431 5.67285V8.80458C9.85431 9.12558 10.1283 9.39178 10.4588 9.39178C10.7972 9.39178 11.0632 9.12558 11.0632 8.80458V5.67285C11.0632 5.35185 10.7972 5.08565 10.4588 5.08565Z" fill="#2D55FB"/>
</svg>
