<svg width="18" height="18" viewBox="0 0 18 18" fill="none" xmlns="http://www.w3.org/2000/svg">
<path d="M9.00001 0.666992C13.6083 0.666992 17.3333 4.40033 17.3333 9.00033C17.3333 13.6087 13.6083 17.3337 9.00001 17.3337C4.40001 17.3337 0.666679 13.6087 0.666679 9.00033C0.666679 4.40033 4.40001 0.666992 9.00001 0.666992ZM8.70835 4.77533C8.36668 4.77533 8.08335 5.05033 8.08335 5.40033V9.60866C8.08335 9.82533 8.20001 10.0253 8.39168 10.142L11.6583 12.092C11.7583 12.1503 11.8667 12.1837 11.9833 12.1837C12.1917 12.1837 12.4 12.0753 12.5167 11.8753C12.6917 11.5837 12.6 11.2003 12.3 11.017L9.33335 9.25033V5.40033C9.33335 5.05033 9.05001 4.77533 8.70835 4.77533Z" fill="#060B27"/>
</svg>
